# xmcd
# 
# Track frame offsets:
#     150
#     12540
#     24250
#     37855
#     46490
#     55530
#     70005
#     85447
#     97140
#     107202
#     126610
#     138345
#     151737
#     162735
#     176392
#     188452
#     203345
#     220695
#     233642
#     249932
#     262732
#     275572
#     287800
#     298935
#     315285
# 
# Disc length: 4351
# 
# Revision: 4
# Processed by: cddbd v1.5.2PL0 Copyright (c) Steve Scherf et al.
# Submitted via: fre:ac v1.0.17
# 
DISCID=5810fd19
DTITLE=Stompin' Tom Connors - 25 of the Best Stompin' Tom Souvenirs
DYEAR=1998
DGENRE=National Folk
TTITLE0=Blue Berets
TTITLE1=Cross Canada
TTITLE2=Believe In Your Country
TTITLE3=Rubberhead
TTITLE4=The Ketchup Song
TTITLE5=Gumboot Cloggeroo
TTITLE6=Tillsonberg
TTITLE7=Red River Jane
TTITLE8=The Hockey Song
TTITLE9=Suzanne De Lafayette (aka Girl From Lafayette)
TTITLE10=Canada Day, Up Canada Way
TTITLE11=Alberta Rose
TTITLE12=Bud The Spud
TTITLE13=Old Flat-Top Guitar
TTITLE14=Prairie Moon
TTITLE15=Long Gone To The Yukon
TTITLE16=Polka Playin' Henry
TTITLE17=My Home's In Newfoundland
TTITLE18=I Am The Wind
TTITLE19=A Real Canadian Girl
TTITLE20=Blue Nose
TTITLE21=Okanagan Okee
TTITLE22=Sudbury Saturday Night
TTITLE23=Shakin' The Blues
TTITLE24=To It And At It
EXTD=YEAR: 1998
EXTT0=
EXTT1=
EXTT2=
EXTT3=
EXTT4=
EXTT5=
EXTT6=
EXTT7=
EXTT8=
EXTT9=
EXTT10=
EXTT11=
EXTT12=
EXTT13=
EXTT14=
EXTT15=
EXTT16=
EXTT17=
EXTT18=
EXTT19=
EXTT20=
EXTT21=
EXTT22=
EXTT23=
EXTT24=
PLAYORDER=
